PathFileType	4	(X/Y/Z)	OpenSim_Sub10_EMGStiffKnee_Magnet.trc
DataRate	CameraRate	NumFrames	NumMarkers	Units	OrigDataRate	OrigDataStartFrame	OrigNumFrames
100	100	23	8	m	100	7325	8371
Frame#	Time	torso_imu_offset_imu	pelvis_imu_offset_imu	tibia_r_imu_offset_imu	femur_r_imu_offset_imu	tibia_l_imu_offset_imu	femur_l_imu_offset_imu	toes_r_imu_offset_imu	toes_l_imu_offset_imu
				X1	Y1	Z1	X2	Y2	Z2	X3	Y3	Z3	X4	Y4	Z4	X5	Y5	Z5	X6	Y6	Z6	X7	Y7	Z7	X8		Y8	Z8	

7325	73.24000000	-0.93676800	-0.00634800	0.15063500	-0.56640600	-0.08862300	-0.76464800	-0.67944300	-0.57031200	-0.04321300	-0.68188500	-0.45629900	0.13378900	-0.50903300	0.63037100	0.09497100	-0.76977500	0.28271500	0.22998000	-0.66528300	-0.21093800	-0.36303700	-0.76757800	-0.09130900	-0.26953100
7326	73.25000000	-0.93676800	-0.00854500	0.15722700	-0.56616200	-0.09497100	-0.76440400	-0.67919900	-0.57446300	-0.04541000	-0.67553700	-0.46044900	0.13403300	-0.53320300	0.61718800	0.09130900	-0.76977500	0.28051800	0.22778300	-0.65698200	-0.21508800	-0.36499000	-0.76098600	-0.08886700	-0.29638700
7327	73.26000000	-0.93286100	-0.00000000	0.15698200	-0.56616200	-0.09912100	-0.76416000	-0.67700200	-0.57861300	-0.04516600	-0.67749000	-0.46264600	0.13183600	-0.55053700	0.59741200	0.08349600	-0.76928700	0.27172900	0.22094700	-0.65698200	-0.21704100	-0.36499000	-0.75219700	-0.08422900	-0.32324200
7328	73.27000000	-0.93286100	0.00415000	0.16333000	-0.56591800	-0.10131800	-0.76635700	-0.67065400	-0.58496100	-0.04956100	-0.67724600	-0.47070300	0.12060500	-0.57006800	0.57739300	0.08032200	-0.77368200	0.26733400	0.21875000	-0.66113300	-0.21508800	-0.36499000	-0.74340800	-0.07983400	-0.33227500
7329	73.28000000	-0.92431600	-0.00000000	0.16577100	-0.56616200	-0.09692400	-0.77124000	-0.67260700	-0.58715800	-0.04492200	-0.67065400	-0.47705100	0.13232400	-0.59643600	0.55542000	0.07739300	-0.78662100	0.26074200	0.21215800	-0.65673800	-0.21899400	-0.37133800	-0.72973600	-0.08398400	-0.36377000
7330	73.29000000	-0.93115200	0.01269500	0.16748000	-0.56176800	-0.10327100	-0.77099600	-0.67236300	-0.59326200	-0.05371100	-0.66845700	-0.48315400	0.12573200	-0.61157200	0.53784200	0.07177700	-0.77978500	0.25634800	0.21215800	-0.65258800	-0.21704100	-0.36718800	-0.72094700	-0.08374000	-0.38403300
7331	73.30000000	-0.93310500	0.01269500	0.16967800	-0.56152300	-0.10742200	-0.76855500	-0.66381800	-0.59545900	-0.04907200	-0.66210900	-0.48510700	0.12133800	-0.62622100	0.50708000	0.07348600	-0.78637700	0.25415000	0.20776400	-0.65673800	-0.22119100	-0.36914100	-0.70507800	-0.09008800	-0.39526400
7332	73.31000000	-0.92480500	0.01684600	0.16967800	-0.56372100	-0.10742200	-0.77075200	-0.66137700	-0.60376000	-0.05542000	-0.64941400	-0.49340800	0.12622100	-0.64135700	0.49169900	0.07421900	-0.78613300	0.24780300	0.19433600	-0.65283200	-0.21484400	-0.36303700	-0.69360400	-0.09423800	-0.41088900
7333	73.32000000	-0.93335000	0.01684600	0.17602500	-0.56152300	-0.10546900	-0.76855500	-0.65942400	-0.60156200	-0.06225600	-0.65771500	-0.49340800	0.13305700	-0.65869100	0.46752900	0.06445300	-0.79248000	0.23901400	0.18994100	-0.65673800	-0.22094700	-0.37133800	-0.68896500	-0.09863300	-0.42871100
7334	73.33000000	-0.93139600	0.02319300	0.17358400	-0.55957000	-0.10327100	-0.77099600	-0.65942400	-0.60376000	-0.06445300	-0.64917000	-0.49560500	0.14013700	-0.67163100	0.44995100	0.07446300	-0.79248000	0.23461900	0.19213900	-0.65063500	-0.22094700	-0.36279300	-0.67993200	-0.10498000	-0.44213900
7335	73.34000000	-0.92504900	0.02758800	0.17358400	-0.56152300	-0.10327100	-0.77807600	-0.66113300	-0.61206100	-0.06640600	-0.64282200	-0.50366200	0.14502000	-0.68872100	0.42797900	0.06250000	-0.78808600	0.23461900	0.18994100	-0.65063500	-0.21899400	-0.36694300	-0.66626000	-0.10913100	-0.45800800
7336	73.35000000	-0.92944300	0.02954100	0.17993200	-0.56152300	-0.10742200	-0.77319300	-0.65063500	-0.61621100	-0.06396500	-0.63842800	-0.50585900	0.14282200	-0.69946300	0.40795900	0.07251000	-0.79882800	0.22802700	0.18554700	-0.65258800	-0.22314500	-0.36914100	-0.65429700	-0.12670900	-0.47143600
7337	73.36000000	-0.92504900	0.02954100	0.17334000	-0.56152300	-0.11157200	-0.76831100	-0.65039100	-0.62451200	-0.06372100	-0.64062500	-0.50585900	0.14282200	-0.70312500	0.38378900	0.06933600	-0.79858400	0.21923800	0.18579100	-0.65869100	-0.22509800	-0.36499000	-0.64550800	-0.12646500	-0.47802700
7338	73.37000000	-0.92724600	0.02954100	0.17553700	-0.56152300	-0.10961900	-0.77075200	-0.64599600	-0.62451200	-0.07275400	-0.63818400	-0.51611300	0.15234400	-0.71606400	0.36840800	0.05908200	-0.79834000	0.21704100	0.18798800	-0.64843800	-0.22509800	-0.36499000	-0.62719700	-0.13745100	-0.48925800
7339	73.38000000	-0.93164100	0.03173800	0.17773400	-0.56152300	-0.10961900	-0.77539100	-0.64599600	-0.62670900	-0.07251000	-0.63183600	-0.52246100	0.15722700	-0.72656200	0.34204100	0.06274400	-0.79809600	0.20849600	0.18579100	-0.65673800	-0.22509800	-0.36279300	-0.62231400	-0.14599600	-0.50708000
7340	73.39000000	-0.92724600	0.03173800	0.17773400	-0.56567400	-0.11377000	-0.77294900	-0.64184600	-0.62670900	-0.07495100	-0.62744100	-0.52441400	0.15722700	-0.73730500	0.32885700	0.05908200	-0.80444300	0.20190400	0.19262700	-0.65014600	-0.23339800	-0.35644500	-0.61328100	-0.14599600	-0.51611300
7341	73.40000000	-0.92553700	0.03808600	0.17968800	-0.56372100	-0.10742200	-0.77783200	-0.63330100	-0.63281200	-0.07690400	-0.62744100	-0.52856400	0.15747100	-0.74365200	0.31567400	0.06420900	-0.80664100	0.19970700	0.19262700	-0.65454100	-0.23120100	-0.35864300	-0.59960900	-0.15673800	-0.52270500
7342	73.41000000	-0.92749000	0.03393600	0.17553700	-0.55517600	-0.10522500	-0.77319300	-0.63525400	-0.63501000	-0.07446300	-0.61254900	-0.53247100	0.16210900	-0.74536100	0.29589800	0.05615200	-0.80371100	0.18017600	0.19726600	-0.65429700	-0.23339800	-0.35424800	-0.59497100	-0.16113300	-0.52734400
7343	73.42000000	-0.92529300	0.03588900	0.17968800	-0.55737300	-0.10327100	-0.76635700	-0.63305700	-0.64111300	-0.07666000	-0.61474600	-0.53051800	0.15747100	-0.74707000	0.28271500	0.05688500	-0.80371100	0.17578100	0.19506800	-0.66088900	-0.22729500	-0.36084000	-0.59252900	-0.16088900	-0.54077100
7344	73.43000000	-0.92749000	0.03808600	0.18847700	-0.55737300	-0.09912100	-0.77124000	-0.62231400	-0.64331100	-0.08325200	-0.61450200	-0.54296900	0.15576200	-0.75341800	0.26513700	0.06005900	-0.80542000	0.16479500	0.20434600	-0.66064500	-0.23339800	-0.35034200	-0.58129900	-0.16528300	-0.54516600
7345	73.44000000	-0.92334000	0.03808600	0.18627900	-0.55957000	-0.09912100	-0.76416000	-0.62426800	-0.64746100	-0.09204100	-0.60815400	-0.54296900	0.14892600	-0.75756800	0.25854500	0.06274400	-0.80273400	0.15185500	0.21118200	-0.65649400	-0.23535200	-0.34814500	-0.58154300	-0.16088900	-0.55639600
7346	73.45000000	-0.92773400	0.04223600	0.17944300	-0.55542000	-0.09912100	-0.76879900	-0.61572300	-0.65161100	-0.08960000	-0.60791000	-0.54711900	0.14209000	-0.75512700	0.24755900	0.05419900	-0.80688500	0.14306600	0.21582000	-0.65844700	-0.23339800	-0.34594700	-0.56543000	-0.16943400	-0.55859400
7347	73.46000000	-0.92138700	0.04223600	0.18408200	-0.56176800	-0.09692400	-0.77124000	-0.61352500	-0.65991200	-0.09814500	-0.60351600	-0.55322300	0.13769500	-0.75732400	0.24536100	0.06103500	-0.80224600	0.13671900	0.21582000	-0.66674800	-0.24169900	-0.34814500	-0.56103500	-0.16723600	-0.56323200
